<mxfile host="app.diagrams.net" modified="2021-04-08T03:40:51.557Z" agent="5.0 (Macintosh; Intel Mac OS X 10_11_6) AppleWebKit/537.36 (KHTML, like Gecko) Chrome/89.0.4389.114 Safari/537.36" etag="qn-WuqRLaC86tTmSPajb" version="14.5.6" type="github">
  <diagram id="0W3Nm0NwAqT56I2befqL" name="Page-1">
    <mxGraphModel dx="755" dy="490" grid="0" gridSize="10" guides="1" tooltips="1" connect="1" arrows="1" fold="1" page="1" pageScale="3" pageWidth="827" pageHeight="1169" math="0" shadow="0">
      <root>
        <mxCell id="0" />
        <mxCell id="1" parent="0" />
        <mxCell id="9a5zsPKxVynr9zk-xDOr-2" value="&lt;font style=&quot;font-size: 18px&quot;&gt;TC&lt;br&gt;(Transaction Coordinator&lt;br&gt;事务协调者)&lt;br&gt;&lt;/font&gt;" style="rounded=0;whiteSpace=wrap;html=1;fillColor=#fff2cc;strokeColor=#d6b656;" vertex="1" parent="1">
          <mxGeometry x="520" y="400" width="140" height="380" as="geometry" />
        </mxCell>
        <mxCell id="9a5zsPKxVynr9zk-xDOr-5" style="edgeStyle=orthogonalEdgeStyle;rounded=0;orthogonalLoop=1;jettySize=auto;html=1;entryX=0.007;entryY=0.134;entryDx=0;entryDy=0;entryPerimeter=0;" edge="1" parent="1" source="9a5zsPKxVynr9zk-xDOr-3" target="9a5zsPKxVynr9zk-xDOr-2">
          <mxGeometry relative="1" as="geometry" />
        </mxCell>
        <mxCell id="9a5zsPKxVynr9zk-xDOr-6" value="&lt;font style=&quot;font-size: 13px&quot;&gt;Apply XID&lt;/font&gt;" style="edgeLabel;html=1;align=center;verticalAlign=middle;resizable=0;points=[];" vertex="1" connectable="0" parent="9a5zsPKxVynr9zk-xDOr-5">
          <mxGeometry x="-0.106" y="4" relative="1" as="geometry">
            <mxPoint as="offset" />
          </mxGeometry>
        </mxCell>
        <mxCell id="9a5zsPKxVynr9zk-xDOr-10" style="edgeStyle=orthogonalEdgeStyle;rounded=0;orthogonalLoop=1;jettySize=auto;html=1;entryX=0.5;entryY=0;entryDx=0;entryDy=0;" edge="1" parent="1" source="9a5zsPKxVynr9zk-xDOr-3" target="9a5zsPKxVynr9zk-xDOr-7">
          <mxGeometry relative="1" as="geometry" />
        </mxCell>
        <mxCell id="9a5zsPKxVynr9zk-xDOr-3" value="Micro Service A" style="rounded=0;whiteSpace=wrap;html=1;fillColor=#dae8fc;strokeColor=#6c8ebf;" vertex="1" parent="1">
          <mxGeometry x="90" y="420" width="150" height="60" as="geometry" />
        </mxCell>
        <mxCell id="9a5zsPKxVynr9zk-xDOr-11" style="edgeStyle=orthogonalEdgeStyle;rounded=0;orthogonalLoop=1;jettySize=auto;html=1;entryX=0.5;entryY=0;entryDx=0;entryDy=0;" edge="1" parent="1" source="9a5zsPKxVynr9zk-xDOr-7" target="9a5zsPKxVynr9zk-xDOr-8">
          <mxGeometry relative="1" as="geometry" />
        </mxCell>
        <mxCell id="9a5zsPKxVynr9zk-xDOr-12" style="edgeStyle=orthogonalEdgeStyle;rounded=0;orthogonalLoop=1;jettySize=auto;html=1;exitX=1;exitY=0.5;exitDx=0;exitDy=0;" edge="1" parent="1" source="9a5zsPKxVynr9zk-xDOr-7">
          <mxGeometry relative="1" as="geometry">
            <mxPoint x="519" y="534" as="targetPoint" />
            <Array as="points">
              <mxPoint x="280" y="534" />
              <mxPoint x="519" y="534" />
            </Array>
          </mxGeometry>
        </mxCell>
        <mxCell id="9a5zsPKxVynr9zk-xDOr-23" value="&lt;span style=&quot;color: rgb(0 , 0 , 0)&quot;&gt;&lt;font style=&quot;font-size: 13px&quot;&gt;XID + BranchID&lt;/font&gt;&lt;/span&gt;" style="edgeLabel;html=1;align=center;verticalAlign=middle;resizable=0;points=[];fontSize=22;fontColor=#3333FF;" vertex="1" connectable="0" parent="9a5zsPKxVynr9zk-xDOr-12">
          <mxGeometry x="-0.0631" y="3" relative="1" as="geometry">
            <mxPoint as="offset" />
          </mxGeometry>
        </mxCell>
        <mxCell id="9a5zsPKxVynr9zk-xDOr-14" value="&lt;font style=&quot;font-size: 13px&quot;&gt;Report Status&lt;/font&gt;" style="edgeStyle=orthogonalEdgeStyle;rounded=0;orthogonalLoop=1;jettySize=auto;html=1;exitX=1;exitY=0.75;exitDx=0;exitDy=0;entryX=0.007;entryY=0.434;entryDx=0;entryDy=0;entryPerimeter=0;" edge="1" parent="1" source="9a5zsPKxVynr9zk-xDOr-7" target="9a5zsPKxVynr9zk-xDOr-2">
          <mxGeometry relative="1" as="geometry">
            <mxPoint x="510" y="565" as="targetPoint" />
          </mxGeometry>
        </mxCell>
        <mxCell id="9a5zsPKxVynr9zk-xDOr-7" value="Micro Service B" style="rounded=0;whiteSpace=wrap;html=1;fillColor=#f8cecc;strokeColor=#b85450;" vertex="1" parent="1">
          <mxGeometry x="130" y="520" width="150" height="60" as="geometry" />
        </mxCell>
        <mxCell id="9a5zsPKxVynr9zk-xDOr-15" style="edgeStyle=orthogonalEdgeStyle;rounded=0;orthogonalLoop=1;jettySize=auto;html=1;exitX=1;exitY=0.25;exitDx=0;exitDy=0;" edge="1" parent="1" source="9a5zsPKxVynr9zk-xDOr-8">
          <mxGeometry relative="1" as="geometry">
            <mxPoint x="519" y="660" as="targetPoint" />
            <Array as="points">
              <mxPoint x="410" y="665" />
              <mxPoint x="410" y="660" />
              <mxPoint x="519" y="660" />
            </Array>
          </mxGeometry>
        </mxCell>
        <mxCell id="9a5zsPKxVynr9zk-xDOr-18" value="&lt;font style=&quot;font-size: 13px&quot;&gt;XID + BranchID&lt;/font&gt;" style="edgeLabel;html=1;align=center;verticalAlign=middle;resizable=0;points=[];" vertex="1" connectable="0" parent="9a5zsPKxVynr9zk-xDOr-15">
          <mxGeometry x="-0.1785" y="2" relative="1" as="geometry">
            <mxPoint as="offset" />
          </mxGeometry>
        </mxCell>
        <mxCell id="9a5zsPKxVynr9zk-xDOr-24" style="edgeStyle=orthogonalEdgeStyle;rounded=0;orthogonalLoop=1;jettySize=auto;html=1;exitX=1;exitY=0.75;exitDx=0;exitDy=0;entryX=0.043;entryY=0.776;entryDx=0;entryDy=0;entryPerimeter=0;fontSize=22;fontColor=#3333FF;" edge="1" parent="1" source="9a5zsPKxVynr9zk-xDOr-8" target="9a5zsPKxVynr9zk-xDOr-2">
          <mxGeometry relative="1" as="geometry" />
        </mxCell>
        <mxCell id="9a5zsPKxVynr9zk-xDOr-26" value="&lt;font style=&quot;font-size: 13px&quot; color=&quot;#000000&quot;&gt;Commit or rollback&lt;/font&gt;" style="edgeLabel;html=1;align=center;verticalAlign=middle;resizable=0;points=[];fontSize=22;fontColor=#3333FF;" vertex="1" connectable="0" parent="9a5zsPKxVynr9zk-xDOr-24">
          <mxGeometry x="-0.142" relative="1" as="geometry">
            <mxPoint x="-3" as="offset" />
          </mxGeometry>
        </mxCell>
        <mxCell id="9a5zsPKxVynr9zk-xDOr-8" value="Micro Service C" style="rounded=0;whiteSpace=wrap;html=1;fillColor=#ffe6cc;strokeColor=#d79b00;" vertex="1" parent="1">
          <mxGeometry x="150" y="650" width="150" height="60" as="geometry" />
        </mxCell>
        <mxCell id="9a5zsPKxVynr9zk-xDOr-22" value="Seata life-cycle" style="text;html=1;strokeColor=none;fillColor=none;align=center;verticalAlign=middle;whiteSpace=wrap;rounded=0;fontSize=22;fontStyle=1;fontColor=#3333FF;" vertex="1" parent="1">
          <mxGeometry x="270" y="340" width="200" height="30" as="geometry" />
        </mxCell>
      </root>
    </mxGraphModel>
  </diagram>
</mxfile>
